<?xml version="1.0" encoding="UTF-8" standalone="no"?>
<svg
   xmlns:dc="http://purl.org/dc/elements/1.1/"
   xmlns:cc="http://creativecommons.org/ns#"
   xmlns:rdf="http://www.w3.org/1999/02/22-rdf-syntax-ns#"
   xmlns:svg="http://www.w3.org/2000/svg"
   xmlns="http://www.w3.org/2000/svg"
   xmlns:sodipodi="http://sodipodi.sourceforge.net/DTD/sodipodi-0.dtd"
   xmlns:inkscape="http://www.inkscape.org/namespaces/inkscape"
   width="562.76"
   height="406.98"
   version="1.1"
   viewBox="0 0 562.76 406.98"
   xml:space="preserve"
   id="svg31"
   sodipodi:docname="APIVIA_COURTAGE_BLANC.svg"
   inkscape:version="1.0.2-2 (e86c870879, 2021-01-15)"><sodipodi:namedview
     pagecolor="#ffffff"
     bordercolor="#666666"
     borderopacity="1"
     objecttolerance="10"
     gridtolerance="10"
     guidetolerance="10"
     inkscape:pageopacity="0"
     inkscape:pageshadow="2"
     inkscape:window-width="1920"
     inkscape:window-height="1001"
     id="namedview33"
     showgrid="false"
     inkscape:zoom="2.0394122"
     inkscape:cx="233.88804"
     inkscape:cy="195.03169"
     inkscape:window-x="-9"
     inkscape:window-y="-9"
     inkscape:window-maximized="1"
     inkscape:current-layer="svg31"
     inkscape:document-rotation="0" /><title
     id="title2">Logo Apivia Courtage Blanc</title><metadata
     id="metadata4"><rdf:RDF><cc:Work
         rdf:about=""><dc:format>image/svg+xml</dc:format><dc:type
           rdf:resource="http://purl.org/dc/dcmitype/StillImage" /><dc:title>Logo Apivia Courtage Blanc</dc:title></cc:Work></rdf:RDF></metadata><defs
     id="defs9"><clipPath
       id="clipPath172"><path
         d="M 0,595.28 H 841.89 V 0 H 0 Z"
         id="path6" /></clipPath></defs><g
     transform="matrix(0.94767565,0,0,-0.94767565,-200.53946,441.33387)"
     id="g29"><g
       transform="matrix(1.489,0,0,1.7637,-118.26,-314.4)"
       id="g27"><g
         clip-path="url(#clipPath172)"
         id="g25"><g
           transform="translate(549.81,240.99)"
           id="g15"><path
             d="M 0,0 0.011,4.135 10.414,4.106 10.429,9.879 0.024,9.907 0.039,14.963 12.02,14.931 12.022,21.144 H -6.848 V -6.298 l 18.795,0.101 0.923,6.16 z m -142.58,8.188 -5.538,0.014 0.019,7.065 5.347,-0.015 c 2.866,-0.007 4.056,-1.204 4.048,-3.64 -0.006,-2.577 -1.631,-3.431 -3.876,-3.424 m 10.753,3.692 c 0.014,5.727 -3.794,9.205 -10.146,9.223 h -13.009 V -6.279 l 6.824,-0.019 0.026,9.061 5.001,-0.015 4.31,-9.034 h 7.228 l -4.964,10.114 c 2.929,1.422 4.719,4.202 4.73,8.052 m 97.488,-7.704 6.115,-0.016 -0.01,-3.811 c -1.494,-1.053 -3.442,-1.605 -5.637,-1.6 -4.796,0.015 -8.267,3.671 -8.252,8.695 v 0.079 c 0.015,4.695 3.542,8.506 7.866,8.494 3.199,-0.007 5.047,-1.033 7.155,-2.804 l 0.069,-0.057 3.956,4.746 -0.068,0.057 c -3.177,2.715 -6.336,3.828 -10.897,3.841 -4.028,0.011 -7.738,-1.48 -10.454,-4.196 -2.67,-2.67 -4.148,-6.275 -4.162,-10.141 V 7.384 c -0.011,-4.003 1.425,-7.641 4.037,-10.243 2.641,-2.629 6.383,-4.083 10.536,-4.096 4.421,-0.011 8.417,1.462 11.869,4.375 l 0.036,12.151 -12.144,0.033 z m -63.199,16.86 c -6.465,0.011 -12.931,0.029 -19.392,0.056 -0.307,0.002 -0.382,-0.1 -0.382,-0.392 0.003,-1.915 0,-3.803 -0.018,-5.721 0,-0.293 0.082,-0.384 0.382,-0.382 1.972,0.007 6.326,-0.012 6.326,-0.012 l -0.058,-20.864 6.738,-0.019 0.057,20.863 c 0,0 4.342,-0.004 6.304,-0.022 0.283,-0.002 0.394,0.061 0.39,0.369 -0.007,1.929 0,3.826 0.018,5.753 0,0.282 -0.079,0.371 -0.365,0.371 M -218.508,0 c -2.742,-1.619 -6.313,-1.022 -8.461,1.415 -1.44,1.634 -2.202,3.686 -2.192,6.296 0.069,2.271 0.99,4.552 3.164,6.181 3.108,2.329 7.326,1.674 9.784,-1.467 3.021,-3.862 1.897,-9.951 -2.295,-12.425 m -3.169,21.8 c -7.912,0.096 -14.306,-6.223 -14.416,-14.25 -0.109,-7.918 6.232,-14.408 14.169,-14.503 7.692,-0.048 14.263,6.182 14.333,14.242 0.069,7.941 -6.194,14.414 -14.086,14.511 m 50.281,-0.685 c -2.035,-0.002 -4.071,-0.002 -6.106,0.02 -0.331,0.004 -0.397,-0.116 -0.397,-0.418 0.004,-2.749 -0.032,-13.126 -0.039,-15.567 -0.003,-1.054 -0.113,-2.094 -0.4,-3.115 -0.401,-1.417 -1.262,-2.386 -2.708,-2.763 -1.173,-0.305 -2.363,-0.303 -3.548,-0.066 -1.626,0.326 -2.609,1.33 -3.032,2.913 -0.295,1.098 -0.377,2.218 -0.374,3.349 0.018,5.1 0.029,10.204 0.052,15.304 0,0.302 -0.08,0.391 -0.382,0.391 -2.036,-0.007 -4.073,0.002 -6.108,0.015 -0.252,0.004 -0.368,-0.039 -0.368,-0.336 -0.004,-5.254 -0.031,-10.51 -0.024,-15.763 0.004,-1.827 0.308,-3.617 0.989,-5.326 1.252,-3.138 3.415,-5.305 6.738,-6.179 2.586,-0.679 5.193,-0.69 7.802,-0.107 2.963,0.661 5.162,2.337 6.602,5.007 1.121,2.077 1.584,4.326 1.602,6.666 0.037,5.209 0.039,10.42 0.064,15.631 0.002,0.285 -0.102,0.344 -0.363,0.344 m -84.875,-21.944 c -4.6,0.011 -7.302,3.445 -7.289,8.281 0.013,4.703 2.733,8.226 7.185,8.215 2.334,-0.008 4.176,-0.919 5.608,-2.25 l 3.765,4.778 c -2.475,2.154 -5.601,3.59 -9.729,3.601 -7.786,0.019 -13.84,-5.672 -13.864,-14.326 -0.021,-8.116 5.56,-14.407 14.112,-14.43 3.852,-0.011 6.936,1.325 9.505,3.547 l -3.692,4.748 c -1.471,-1.417 -3.366,-2.171 -5.601,-2.164 m 185.48,3.566 -6.376,0.019 0.34,0.67 c 0.868,1.722 1.829,3.878 2.845,6.604 h 0.096 c 1,-2.734 1.901,-4.892 2.762,-6.619 z m -3.906,18.355 -14.289,-27.361 7.433,-0.019 1.784,3.684 11.504,-0.032 1.798,-3.662 h 7.612 l -14.066,27.385 z"
             fill="#ffffff"
             id="path13" /></g><g
           transform="translate(562.68,338.66)"
           id="g19"><path
             d="M 0,0 C -31.498,43.217 -83.137,68.435 -142.4,68.435 -201.661,68.435 -258.96,39.223 -283.46,0 h 4.356 c 34.068,28.393 76.395,45.476 124.18,45.476 47.754,0 78.81,-19.898 101.54,-45.476 z"
             fill="#ffffff"
             id="path17" /></g><g
           transform="translate(452.58,308.02)"
           id="g23"><path
             d="M 0,0 C -1.48,-3.229 -3.053,-6.633 -4.886,-11.606 H -5.062 C -6.895,-6.633 -8.467,-3.229 -9.864,0 l -7.595,16.667 h -14.235 l 25.06,-51.313 h 2.616 L 21.129,16.667 H 7.687 Z m 76.654,-16.737 0.608,1.221 c 1.576,3.141 3.32,7.071 5.157,12.045 h 0.172 c 1.837,-4.974 3.492,-8.904 5.064,-12.045 l 0.612,-1.221 z M 84.71,16.667 H 80.646 L 55.175,-33.231 H 68.71 l 3.23,6.718 h 20.955 l 3.316,-6.718 h 13.886 z m -51.694,-49.9 H 45.5 V 16.668 H 33.016 Z m -90.891,0 h 12.484 v 49.901 h -12.484 z m -82.401,16.496 h -11.612 l 0.609,1.221 c 1.575,3.141 3.32,7.071 5.154,12.045 h 0.173 c 1.835,-4.974 3.491,-8.904 5.065,-12.045 z m -7.208,33.404 -25.885,-49.898 h 13.533 l 3.232,6.718 h 20.956 l 3.319,-6.718 h 13.882 l -25.796,49.898 z M -86.608,-6.895 H -96.735 V 6.023 h 9.778 c 5.24,0 7.423,-2.181 7.423,-6.633 0,-4.715 -2.968,-6.285 -7.074,-6.285 m 1.048,23.562 h -23.659 v -49.9 h 12.484 v 16.388 h 11.703 c 10.738,0 18.072,6.198 18.072,16.758 0,10.473 -6.988,16.754 -18.6,16.754"
             fill="#ffffff"
             id="path21" /></g></g></g></g></svg>
