<?xml version="1.0" encoding="UTF-8"?>
<svg width="408.19" height="321.26" version="1.1" viewBox="0 0 408.19 321.26" xml:space="preserve" xmlns="http://www.w3.org/2000/svg">
    <defs><clipPath id="clipPath875"><path d="M 0,595.28 H 841.89 V 0 H 0 Z"/></clipPath></defs>
    <g transform="matrix(1.0716 0 0 -1.1017 -246.3 502.92)">
        <g clip-path="url(#clipPath875)"><g transform="translate(549.81,240.99)">
            <path d="m0 0 0.011 4.135 10.403-0.029 0.015 5.773-10.405 0.028 0.015 5.056 11.981-0.032 2e-3 6.213h-18.87v-27.442l18.795 0.101 0.923 6.16zm-142.58 8.188-5.538 0.014 0.019 7.065 5.347-0.015c2.866-7e-3 4.056-1.204 4.048-3.64-6e-3 -2.577-1.631-3.431-3.876-3.424m10.753 3.692c0.014 5.727-3.794 9.205-10.146 9.223h-13.009v-27.382l6.824-0.019 0.026 9.061 5.001-0.015 4.31-9.034h7.228l-4.964 10.114c2.929 1.422 4.719 4.202 4.73 8.052m97.488-7.704 6.115-0.016-0.01-3.811c-1.494-1.053-3.442-1.605-5.637-1.6-4.796 0.015-8.267 3.671-8.252 8.695v0.079c0.015 4.695 3.542 8.506 7.866 8.494 3.199-7e-3 5.047-1.033 7.155-2.804l0.069-0.057 3.956 4.746-0.068 0.057c-3.177 2.715-6.336 3.828-10.897 3.841-4.028 0.011-7.738-1.48-10.454-4.196-2.67-2.67-4.148-6.275-4.162-10.141v-0.079c-0.011-4.003 1.425-7.641 4.037-10.243 2.641-2.629 6.383-4.083 10.536-4.096 4.421-0.011 8.417 1.462 11.869 4.375l0.036 12.151-12.144 0.033zm-63.199 16.86c-6.465 0.011-12.931 0.029-19.392 0.056-0.307 2e-3 -0.382-0.1-0.382-0.392 3e-3 -1.915 0-3.803-0.018-5.721 0-0.293 0.082-0.384 0.382-0.382 1.972 7e-3 6.326-0.012 6.326-0.012l-0.058-20.864 6.738-0.019 0.057 20.863s4.342-4e-3 6.304-0.022c0.283-2e-3 0.394 0.061 0.39 0.369-7e-3 1.929 0 3.826 0.018 5.753 0 0.282-0.079 0.371-0.365 0.371m-120.97-21.036c-2.742-1.619-6.313-1.022-8.461 1.415-1.44 1.634-2.202 3.686-2.192 6.296 0.069 2.271 0.99 4.552 3.164 6.181 3.108 2.329 7.326 1.674 9.784-1.467 3.021-3.862 1.897-9.951-2.295-12.425m-3.169 21.8c-7.912 0.096-14.306-6.223-14.416-14.25-0.109-7.918 6.232-14.408 14.169-14.503 7.692-0.048 14.263 6.182 14.333 14.242 0.069 7.941-6.194 14.414-14.086 14.511m50.281-0.685c-2.035-2e-3 -4.071-2e-3 -6.106 0.02-0.331 4e-3 -0.397-0.116-0.397-0.418 4e-3 -2.749-0.032-13.126-0.039-15.567-3e-3 -1.054-0.113-2.094-0.4-3.115-0.401-1.417-1.262-2.386-2.708-2.763-1.173-0.305-2.363-0.303-3.548-0.066-1.626 0.326-2.609 1.33-3.032 2.913-0.295 1.098-0.377 2.218-0.374 3.349 0.018 5.1 0.029 10.204 0.052 15.304 0 0.302-0.08 0.391-0.382 0.391-2.036-7e-3 -4.073 2e-3 -6.108 0.015-0.252 4e-3 -0.368-0.039-0.368-0.336-4e-3 -5.254-0.031-10.51-0.024-15.763 4e-3 -1.827 0.308-3.617 0.989-5.326 1.252-3.138 3.415-5.305 6.738-6.179 2.586-0.679 5.193-0.69 7.802-0.107 2.963 0.661 5.162 2.337 6.602 5.007 1.121 2.077 1.584 4.326 1.602 6.666 0.037 5.209 0.039 10.42 0.064 15.631 2e-3 0.285-0.102 0.344-0.363 0.344m-84.875-21.944c-4.6 0.011-7.302 3.445-7.289 8.281 0.013 4.703 2.733 8.226 7.185 8.215 2.334-8e-3 4.176-0.919 5.608-2.25l3.765 4.778c-2.475 2.154-5.601 3.59-9.729 3.601-7.786 0.019-13.84-5.672-13.864-14.326-0.021-8.116 5.56-14.407 14.112-14.43 3.852-0.011 6.936 1.325 9.505 3.547l-3.692 4.748c-1.471-1.417-3.366-2.171-5.601-2.164m185.48 3.566-6.376 0.019 0.34 0.67c0.868 1.722 1.829 3.878 2.845 6.604h0.096c1-2.734 1.901-4.892 2.762-6.619zm-3.906 18.355-14.289-27.361 7.433-0.019 1.784 3.684 11.504-0.032 1.798-3.662h7.612l-14.066 27.385z" fill="#d3d62e"/></g>
            <g transform="translate(562.68,338.66)">
                <path d="m0 0c-31.498 43.217-83.137 68.435-142.4 68.435-59.261 0-116.56-29.212-141.06-68.435h4.356c34.068 28.393 76.395 45.476 124.18 45.476 47.754 0 78.81-19.898 101.54-45.476z" fill="#d3d62e"/></g>
            <g transform="translate(452.58,308.02)">
                <path d="m0 0c-1.48-3.229-3.053-6.633-4.886-11.606h-0.176c-1.833 4.973-3.405 8.377-4.802 11.606l-7.595 16.667h-14.235l25.06-51.313h2.616l25.147 51.313h-13.442zm76.654-16.737 0.608 1.221c1.576 3.141 3.32 7.071 5.157 12.045h0.172c1.837-4.974 3.492-8.904 5.064-12.045l0.612-1.221zm8.056 33.404h-4.064l-25.471-49.898h13.535l3.23 6.718h20.955l3.316-6.718h13.886zm-51.694-49.9h12.484v49.901h-12.484zm-90.891 0h12.484v49.901h-12.484zm-82.401 16.496h-11.612l0.609 1.221c1.575 3.141 3.32 7.071 5.154 12.045h0.173c1.835-4.974 3.491-8.904 5.065-12.045zm-7.208 33.404-25.885-49.898h13.533l3.232 6.718h20.956l3.319-6.718h13.882l-25.796 49.898zm60.876-23.562h-10.127v12.918h9.778c5.24 0 7.423-2.181 7.423-6.633 0-4.715-2.968-6.285-7.074-6.285m1.048 23.562h-23.659v-49.9h12.484v16.388h11.703c10.738 0 18.072 6.198 18.072 16.758 0 10.473-6.988 16.754-18.6 16.754" fill="#0a2d82"/></g>
        </g>
    </g>
</svg>
